<svg width="87" height="14" viewBox="0 0 87 14" fill="none" xmlns="http://www.w3.org/2000/svg">
<path d="M6.21887 13.1251C5.36314 13.1251 4.55864 12.9564 3.80536 12.6189C3.05208 12.2754 2.38919 11.8054 1.8167 11.2088C1.25023 10.6062 0.804288 9.90713 0.478871 9.11167C0.15948 8.3162 -0.000215732 7.4665 -0.000215732 6.56257C-0.000215732 5.65863 0.15948 4.80893 0.478871 4.01346C0.804288 3.218 1.25023 2.52197 1.8167 1.92537C2.38919 1.32274 3.05208 0.852697 3.80536 0.515228C4.55864 0.171731 5.36314 -1.67623e-05 6.21887 -1.67623e-05C7.24333 -1.67623e-05 8.18644 0.23802 9.04819 0.714093C9.90995 1.19017 10.6241 1.82292 11.1905 2.61236L9.84366 3.33551C9.42182 2.7811 8.8885 2.34118 8.24369 2.01576C7.60491 1.68432 6.92997 1.5186 6.21887 1.5186C5.56201 1.5186 4.94733 1.65118 4.37484 1.91633C3.80837 2.18148 3.31121 2.54607 2.88334 3.01009C2.45548 3.47411 2.12102 4.01045 1.87997 4.6191C1.63892 5.22775 1.5184 5.87557 1.5184 6.56257C1.5184 7.25558 1.63892 7.90642 1.87997 8.51507C2.12705 9.12372 2.46452 9.66006 2.89238 10.1241C3.32627 10.5881 3.82645 10.9527 4.39292 11.2178C4.96541 11.477 5.57406 11.6065 6.21887 11.6065C6.95407 11.6065 7.63504 11.4408 8.26177 11.1094C8.89452 10.7719 9.42182 10.332 9.84366 9.78962L11.1905 10.5218C10.6241 11.3112 9.90995 11.944 9.04819 12.4201C8.18644 12.8901 7.24333 13.1251 6.21887 13.1251ZM16.503 13.1251C15.6714 13.1251 14.9121 12.9112 14.2251 12.4834C13.5441 12.0555 12.9987 11.483 12.5889 10.7659C12.1852 10.0427 11.9833 9.24425 11.9833 8.37044C11.9833 7.70755 12.1008 7.08986 12.3358 6.51737C12.5709 5.93885 12.8933 5.43264 13.3031 4.99875C13.7189 4.55884 14.201 4.21534 14.7494 3.96827C15.2977 3.72119 15.8823 3.59765 16.503 3.59765C17.3346 3.59765 18.0909 3.81158 18.7719 4.23945C19.4589 4.66731 20.0042 5.24282 20.408 5.96597C20.8178 6.68912 21.0227 7.49061 21.0227 8.37044C21.0227 9.0273 20.9052 9.64198 20.6701 10.2145C20.4351 10.787 20.1097 11.2932 19.6939 11.7331C19.2841 12.167 18.805 12.5075 18.2566 12.7545C17.7143 13.0016 17.1297 13.1251 16.503 13.1251ZM16.503 11.6065C17.0695 11.6065 17.5787 11.4589 18.0306 11.1636C18.4886 10.8623 18.8472 10.4676 19.1063 9.97945C19.3715 9.48529 19.5041 8.94896 19.5041 8.37044C19.5041 7.77987 19.3685 7.23751 19.0973 6.74335C18.8321 6.2492 18.4736 5.85448 18.0216 5.5592C17.5696 5.26391 17.0634 5.11627 16.503 5.11627C15.9365 5.11627 15.4273 5.26692 14.9753 5.56823C14.5234 5.86352 14.1648 6.25824 13.8996 6.75239C13.6345 7.24654 13.5019 7.78589 13.5019 8.37044C13.5019 8.97306 13.6375 9.52145 13.9087 10.0156C14.1799 10.5037 14.5445 10.8924 15.0025 11.1817C15.4604 11.4649 15.9606 11.6065 16.503 11.6065ZM30.5092 7.26764V12.8901H28.9906V7.60209C28.9906 7.1441 28.8791 6.72829 28.6561 6.35466C28.4332 5.98103 28.1349 5.68575 27.7612 5.4688C27.3876 5.24583 26.9718 5.13435 26.5138 5.13435C26.0618 5.13435 25.646 5.24583 25.2664 5.4688C24.8927 5.68575 24.5944 5.98103 24.3715 6.35466C24.1485 6.72829 24.037 7.1441 24.037 7.60209V12.8901H22.5184V3.85076H24.037V4.98068C24.3564 4.55884 24.7602 4.22438 25.2483 3.97731C25.7364 3.7242 26.2667 3.59765 26.8392 3.59765C27.5142 3.59765 28.1288 3.76337 28.6833 4.09482C29.2437 4.42024 29.6866 4.86015 30.012 5.41457C30.3435 5.96898 30.5092 6.58667 30.5092 7.26764ZM36.9993 5.36937H34.9474L34.9384 12.8901H33.4197L33.4288 5.36937H31.874V3.85076H33.4288L33.4197 1.01239H34.9384L34.9474 3.85076H36.9993V5.36937ZM45.6579 3.85076H47.1765V12.8901H45.6579L45.5946 11.3625C45.3114 11.8868 44.9197 12.3116 44.4195 12.637C43.9254 12.9624 43.3348 13.1251 42.6478 13.1251C41.9849 13.1251 41.3642 13.0016 40.7857 12.7545C40.2072 12.5014 39.6949 12.1549 39.249 11.715C38.8091 11.2691 38.4656 10.7568 38.2185 10.1783C37.9714 9.59979 37.8479 8.97608 37.8479 8.30716C37.8479 7.66236 37.9684 7.0537 38.2095 6.48121C38.4505 5.90872 38.785 5.40854 39.2128 4.98068C39.6467 4.54679 40.1469 4.20932 40.7134 3.96827C41.2799 3.72119 41.8885 3.59765 42.5393 3.59765C43.2504 3.59765 43.8741 3.76639 44.4105 4.10386C44.9468 4.4353 45.3807 4.86618 45.7122 5.39649L45.6579 3.85076ZM42.6207 11.6517C43.2173 11.6517 43.7325 11.5071 44.1664 11.2178C44.6063 10.9226 44.9438 10.5248 45.1788 10.0246C45.4199 9.52447 45.5404 8.97306 45.5404 8.37044C45.5404 7.75576 45.4199 7.20135 45.1788 6.7072C44.9378 6.20702 44.5973 5.8123 44.1574 5.52304C43.7235 5.22775 43.2113 5.08011 42.6207 5.08011C42.0241 5.08011 41.4817 5.22775 40.9936 5.52304C40.5055 5.81832 40.1168 6.21606 39.8275 6.71623C39.5443 7.21039 39.4027 7.76179 39.4027 8.37044C39.4027 8.97909 39.5503 9.5335 39.8456 10.0337C40.1409 10.5278 40.5326 10.9226 41.0207 11.2178C41.5088 11.5071 42.0422 11.6517 42.6207 11.6517ZM55.0349 10.5037L56.3908 11.2359C55.981 11.8084 55.4597 12.2664 54.8269 12.6099C54.2002 12.9534 53.5192 13.1251 52.784 13.1251C51.9524 13.1251 51.1931 12.9112 50.5061 12.4834C49.8252 12.0555 49.2798 11.483 48.87 10.7659C48.4662 10.0427 48.2644 9.24425 48.2644 8.37044C48.2644 7.70755 48.3819 7.08986 48.6169 6.51737C48.8519 5.93885 49.1743 5.43264 49.5841 4.99875C49.9999 4.55884 50.482 4.21534 51.0304 3.96827C51.5788 3.72119 52.1633 3.59765 52.784 3.59765C53.5192 3.59765 54.2002 3.7694 54.8269 4.1129C55.4597 4.45639 55.981 4.9174 56.3908 5.49592L55.0349 6.22811C54.7456 5.87256 54.4021 5.59837 54.0044 5.40553C53.6066 5.21269 53.1999 5.11627 52.784 5.11627C52.2236 5.11627 51.7144 5.26692 51.2564 5.56823C50.8044 5.86352 50.4459 6.25824 50.1807 6.75239C49.9156 7.24654 49.783 7.78589 49.783 8.37044C49.783 8.95499 49.9156 9.49433 50.1807 9.98849C50.4519 10.4766 50.8135 10.8683 51.2654 11.1636C51.7234 11.4589 52.2296 11.6065 52.784 11.6065C53.23 11.6065 53.6488 11.5041 54.0405 11.2992C54.4322 11.0943 54.7637 10.8291 55.0349 10.5037ZM62.705 5.36937H60.6531L60.6441 12.8901H59.1254L59.1345 5.36937H57.5797V3.85076H59.1345L59.1254 1.01239H60.6441L60.6531 3.85076H62.705V5.36937ZM73.6222 13.1251C72.6098 13.1251 71.73 12.8781 70.9827 12.3839C70.2415 11.8898 69.669 11.2269 69.2652 10.3953C68.8675 9.55761 68.6686 8.62957 68.6686 7.61113V0.235007H70.1872V7.61113C70.1872 8.33428 70.3198 9.00018 70.585 9.60883C70.8561 10.2175 71.2448 10.7026 71.751 11.0642C72.2633 11.4257 72.887 11.6065 73.6222 11.6065C74.3694 11.6065 74.9962 11.4257 75.5024 11.0642C76.0086 10.6966 76.3913 10.2115 76.6504 9.60883C76.9155 9.00018 77.0481 8.33428 77.0481 7.61113V0.235007H78.5667V7.61113C78.5667 8.37647 78.4522 9.09359 78.2232 9.7625C77.9942 10.4254 77.6628 11.0099 77.2289 11.5161C76.801 12.0223 76.2828 12.4171 75.6741 12.7003C75.0655 12.9835 74.3815 13.1251 73.6222 13.1251ZM83.5017 13.0619C83.0135 13.0438 82.5375 12.9534 82.0734 12.7907C81.6154 12.622 81.2117 12.396 80.8622 12.1127C80.5187 11.8235 80.2686 11.492 80.1119 11.1184L81.4136 10.558C81.504 10.7629 81.6667 10.9557 81.9017 11.1365C82.1367 11.3173 82.4079 11.4619 82.7152 11.5704C83.0226 11.6788 83.3329 11.7331 83.6463 11.7331C83.9777 11.7331 84.2881 11.6819 84.5773 11.5794C84.8666 11.477 85.1016 11.3263 85.2824 11.1274C85.4692 10.9226 85.5626 10.6785 85.5626 10.3953C85.5626 10.0939 85.4602 9.85892 85.2553 9.69019C85.0564 9.51543 84.8033 9.37984 84.496 9.28342C84.1947 9.18097 83.8873 9.08455 83.574 8.99416C82.9533 8.83747 82.3989 8.65066 81.9107 8.43371C81.4226 8.21074 81.0369 7.93052 80.7537 7.59305C80.4765 7.24956 80.3379 6.81266 80.3379 6.28235C80.3379 5.7219 80.4915 5.23679 80.7989 4.82701C81.1123 4.41722 81.522 4.10084 82.0282 3.87787C82.5344 3.6549 83.0768 3.54342 83.6553 3.54342C84.3845 3.54342 85.0504 3.7001 85.653 4.01346C86.2557 4.32683 86.7046 4.75168 86.9999 5.28801L85.7796 6.00212C85.6771 5.78518 85.5205 5.59535 85.3095 5.43264C85.0986 5.26391 84.8576 5.13133 84.5864 5.03491C84.3152 4.93849 84.038 4.88727 83.7548 4.88124C83.4052 4.86919 83.0768 4.91439 82.7695 5.01683C82.4682 5.11928 82.2241 5.27596 82.0373 5.48688C81.8565 5.69177 81.7661 5.94789 81.7661 6.25523C81.7661 6.55654 81.8625 6.78554 82.0554 6.94222C82.2542 7.0989 82.5103 7.22545 82.8237 7.32187C83.1431 7.41227 83.4896 7.51773 83.8632 7.63825C84.4116 7.81301 84.9239 8.01489 85.3999 8.24389C85.876 8.47289 86.2587 8.75913 86.5479 9.10263C86.8432 9.44612 86.9878 9.87097 86.9818 10.3772C86.9818 10.9316 86.8161 11.4167 86.4847 11.8325C86.1532 12.2423 85.7223 12.5557 85.192 12.7726C84.6677 12.9896 84.1043 13.086 83.5017 13.0619Z" fill="white"/>
</svg>
