<svg width="24" height="24" viewBox="0 0 24 24" fill="none" xmlns="http://www.w3.org/2000/svg">
<path d="M19.5005 2.40002C19.9974 2.40024 20.3999 2.80349 20.3999 3.30042C20.3997 3.79716 19.9972 4.19962 19.5005 4.19983H19.1997V19.8004H19.5005C19.9973 19.8006 20.3998 20.203 20.3999 20.6998C20.3999 21.1968 19.9974 21.6 19.5005 21.6002H15.3003C14.8032 21.6002 14.3999 21.1969 14.3999 20.6998V17.6998C14.3998 17.203 13.9973 16.8006 13.5005 16.8004H10.5005C10.0035 16.8004 9.6002 17.2029 9.6001 17.6998V20.6998C9.6001 21.1969 9.19676 21.6002 8.69971 21.6002H4.50049C4.00343 21.6002 3.6001 21.1969 3.6001 20.6998C3.6002 20.2029 4.0035 19.8004 4.50049 19.8004H4.80029V4.19983H4.50049C4.00356 4.19983 3.60031 3.79729 3.6001 3.30042C3.6001 2.80336 4.00343 2.40002 4.50049 2.40002H19.5005ZM9.00049 10.8004C8.66912 10.8004 8.3999 11.0687 8.3999 11.4V12.6002C8.40001 12.9315 8.66918 13.1998 9.00049 13.1998H10.1997C10.531 13.1998 10.8002 12.9315 10.8003 12.6002V11.4C10.8003 11.0687 10.5311 10.8004 10.1997 10.8004H9.00049ZM13.8003 10.8004C13.4689 10.8004 13.1997 11.0687 13.1997 11.4V12.6002C13.1998 12.9315 13.469 13.1998 13.8003 13.1998H15.0005C15.3316 13.1996 15.6 12.9314 15.6001 12.6002V11.4C15.6001 11.0688 15.3317 10.8006 15.0005 10.8004H13.8003ZM9.00049 5.99963C8.66912 5.99963 8.3999 6.26885 8.3999 6.60022V7.80042C8.40011 8.13161 8.66925 8.40002 9.00049 8.40002H10.1997C10.5309 8.40002 10.8001 8.13161 10.8003 7.80042V6.60022C10.8003 6.26885 10.5311 5.99963 10.1997 5.99963H9.00049ZM13.8003 5.99963C13.4689 5.99963 13.1997 6.26885 13.1997 6.60022V7.80042C13.1999 8.13161 13.4691 8.40002 13.8003 8.40002H15.0005C15.3315 8.39981 15.5999 8.13148 15.6001 7.80042V6.60022C15.6001 6.26898 15.3317 5.99985 15.0005 5.99963H13.8003Z" fill="white"/>
</svg>
